<svg xmlns="http://www.w3.org/2000/svg" version="1.1" viewBox="0.00 0.00 233.00 213.00" width="233.00" height="213.00">
<g stroke-width="2.00" fill="none" stroke-linecap="butt">
<path stroke="#808080" d="&#10;  M 62.23 22.61&#10;  C 55.07 23.86 49.01 28.30 45.27 34.50&#10;  C 35.29 51.06 35.65 70.39 43.14 87.92&#10;  Q 52.21 109.14 70.74 123.10&#10;  Q 76.21 127.23 81.74 129.81&#10;  Q 82.44 130.13 82.13 129.43&#10;  C 75.44 114.17 70.13 95.00 73.60 78.60&#10;  C 77.21 61.60 86.00 44.50 101.32 35.97&#10;  A 0.29 0.28 51.6 0 0 101.37 35.51&#10;  C 90.75 25.99 76.38 20.15 62.23 22.61"/>
<path stroke="#808080" d="&#10;  M 86.62 57.24&#10;  C 79.72 68.40 75.81 81.07 74.73 94.22&#10;  A 0.16 0.16 0.0 0 0 75.03 94.31&#10;  Q 90.14 68.93 119.88 63.78&#10;  Q 140.07 60.29 159.28 64.87&#10;  Q 161.85 65.48 164.39 66.47&#10;  A 0.58 0.57 -71.0 0 0 165.15 66.09&#10;  Q 167.81 57.03 165.57 46.92&#10;  Q 163.98 39.75 157.73 34.75&#10;  C 150.50 28.98 140.04 27.48 130.80 28.62&#10;  Q 102.14 32.17 86.62 57.24"/>
<path stroke="#909090" d="&#10;  M 95.99 139.80&#10;  C 70.13 132.84 50.29 117.44 41.40 92.05&#10;  Q 41.12 91.26 40.53 91.85&#10;  Q 39.21 93.17 38.18 94.72&#10;  C 29.84 107.21 24.98 128.79 37.17 141.08&#10;  Q 43.85 147.81 51.97 149.84&#10;  Q 81.15 157.15 110.86 150.11&#10;  C 114.76 149.19 118.26 147.70 121.64 145.52&#10;  Q 123.80 144.12 121.23 143.97&#10;  Q 108.71 143.22 95.99 139.80"/>
<path stroke="#909090" d="&#10;  M 103.56 112.00&#10;  L 123.44 111.98&#10;  Q 123.93 111.98 123.97 111.49&#10;  C 124.40 105.38 123.00 99.65 117.13 96.61&#10;  C 109.92 92.89 100.20 95.76 95.80 102.52&#10;  C 91.09 109.75 92.20 121.57 99.61 126.72&#10;  C 107.89 132.47 118.56 130.93 123.79 121.53&#10;  A 0.50 0.49 -60.5 0 0 123.61 120.86&#10;  L 123.30 120.69&#10;  A 0.76 0.75 32.9 0 0 122.30 120.90&#10;  C 117.82 127.04 107.75 126.27 104.56 119.23&#10;  Q 103.16 116.15 103.01 112.57&#10;  Q 102.98 112.00 103.56 112.00"/>
<path stroke="#909090" d="&#10;  M 174.55 111.99&#10;  L 194.45 112.00&#10;  Q 194.96 112.00 194.99 111.49&#10;  C 195.36 105.08 193.83 99.12 187.47 96.30&#10;  Q 181.98 93.86 175.64 95.90&#10;  C 165.43 99.18 161.78 109.95 165.24 119.54&#10;  Q 167.79 126.62 174.94 128.91&#10;  Q 187.68 133.00 194.65 121.97&#10;  Q 195.16 121.16 194.33 120.71&#10;  L 194.07 120.56&#10;  A 0.44 0.43 32.1 0 0 193.52 120.68&#10;  Q 190.30 124.97 185.09 125.00&#10;  C 177.65 125.04 174.31 119.40 174.01 112.56&#10;  Q 173.99 111.99 174.55 111.99"/>
<path stroke="#909090" d="&#10;  M 140.52 98.00&#10;  L 143.51 97.99&#10;  Q 144.25 97.99 144.25 97.24&#10;  L 144.25 96.75&#10;  Q 144.25 96.00 143.50 96.00&#10;  L 126.03 96.00&#10;  A 0.50 0.49 -88.1 0 0 125.54 96.47&#10;  L 125.51 96.90&#10;  Q 125.44 97.75 126.30 97.73&#10;  Q 127.72 97.70 128.86 98.09&#10;  Q 129.25 98.23 129.41 98.61&#10;  L 143.32 131.78&#10;  Q 143.54 132.31 143.36 132.85&#10;  Q 141.73 137.59 138.30 141.20&#10;  A 0.61 0.61 0.0 0 1 137.35 141.11&#10;  C 135.01 137.51 130.68 135.36 127.07 138.60&#10;  C 126.10 139.47 125.49 141.22 126.19 142.43&#10;  Q 128.19 145.90 132.38 145.94&#10;  C 138.46 146.01 143.05 139.56 144.99 134.27&#10;  Q 151.45 116.59 157.89 98.47&#10;  Q 158.06 97.99 158.56 97.99&#10;  L 161.48 98.00&#10;  Q 161.99 98.00 161.99 97.49&#10;  Q 162.01 96.60 162.01 96.57&#10;  Q 162.02 96.01 161.46 96.01&#10;  Q 156.34 95.99 150.75 96.01&#10;  Q 150.00 96.02 149.99 96.76&#10;  L 149.99 97.48&#10;  Q 149.98 97.99 150.48 97.99&#10;  L 154.71 98.00&#10;  Q 155.31 98.01 155.13 98.58&#10;  L 148.26 120.24&#10;  A 0.24 0.24 0.0 0 1 147.80 120.25&#10;  L 140.01 98.74&#10;  Q 139.74 98.00 140.52 98.00"/>
<path stroke="#909090" d="&#10;  M 166.04 147.23&#10;  A 0.34 0.34 0.0 0 1 165.71 146.83&#10;  L 165.99 145.07&#10;  A 0.34 0.34 0.0 0 1 166.32 144.78&#10;  L 170.82 144.75&#10;  A 0.34 0.34 0.0 0 0 171.15 144.43&#10;  L 171.20 143.38&#10;  A 0.34 0.34 0.0 0 0 170.87 143.03&#10;  L 163.28 142.99&#10;  A 0.34 0.34 0.0 0 0 162.94 143.29&#10;  L 161.80 153.62&#10;  A 0.34 0.34 0.0 0 0 162.14 154.00&#10;  L 169.99 153.97&#10;  A 0.34 0.34 0.0 0 0 170.33 153.67&#10;  L 170.46 152.66&#10;  A 0.34 0.34 0.0 0 0 170.13 152.28&#10;  L 165.44 152.23&#10;  A 0.34 0.34 0.0 0 1 165.10 151.86&#10;  L 165.33 149.31&#10;  A 0.34 0.34 0.0 0 1 165.67 149.01&#10;  L 170.00 148.93&#10;  A 0.34 0.34 0.0 0 0 170.33 148.64&#10;  L 170.47 147.67&#10;  A 0.34 0.34 0.0 0 0 170.13 147.28&#10;  L 166.04 147.23"/>
<path stroke="#909090" d="&#10;  M 177.09 146.44&#10;  L 175.90 143.48&#10;  A 0.75 0.74 -10.0 0 0 175.22 143.01&#10;  L 173.27 143.01&#10;  Q 172.66 143.01 172.91 143.57&#10;  Q 173.89 145.76 175.02 148.15&#10;  C 175.82 149.87 175.40 151.77 175.09 153.55&#10;  Q 175.02 153.97 175.45 153.98&#10;  L 177.76 153.99&#10;  Q 178.18 154.00 178.21 153.58&#10;  C 178.34 151.79 178.26 149.92 179.36 148.36&#10;  Q 181.03 145.99 182.61 143.72&#10;  Q 183.09 143.02 182.24 143.02&#10;  L 180.58 143.01&#10;  Q 179.85 143.00 179.48 143.63&#10;  L 177.81 146.49&#10;  Q 177.39 147.20 177.09 146.44"/>
<path stroke="#808080" d="&#10;  M 191.07 147.22&#10;  A 0.35 0.35 0.0 0 1 190.73 146.82&#10;  L 191.00 145.09&#10;  A 0.35 0.35 0.0 0 1 191.35 144.80&#10;  L 195.79 144.77&#10;  A 0.35 0.35 0.0 0 0 196.14 144.45&#10;  L 196.24 143.40&#10;  A 0.35 0.35 0.0 0 0 195.89 143.02&#10;  L 188.27 142.98&#10;  A 0.35 0.35 0.0 0 0 187.92 143.29&#10;  L 186.80 153.62&#10;  A 0.35 0.35 0.0 0 0 187.15 154.01&#10;  L 194.99 153.99&#10;  A 0.35 0.35 0.0 0 0 195.34 153.68&#10;  L 195.46 152.63&#10;  A 0.35 0.35 0.0 0 0 195.12 152.24&#10;  L 190.48 152.22&#10;  A 0.35 0.35 0.0 0 1 190.13 151.84&#10;  L 190.33 149.34&#10;  A 0.35 0.35 0.0 0 1 190.68 149.02&#10;  L 195.02 148.96&#10;  A 0.35 0.35 0.0 0 0 195.36 148.64&#10;  L 195.44 147.61&#10;  A 0.35 0.35 0.0 0 0 195.09 147.23&#10;  L 191.07 147.22"/>
<path stroke="#909090" d="&#10;  M 114.56 108.31&#10;  C 115.75 104.16 114.91 96.78 109.02 97.07&#10;  C 104.08 97.31 103.05 105.92 102.98 109.41&#10;  Q 102.96 110.00 103.55 110.00&#10;  L 112.34 109.98&#10;  A 2.31 2.31 0.0 0 0 114.56 108.31"/>
<path stroke="#909090" d="&#10;  M 176.86 98.79&#10;  C 174.71 101.51 174.02 106.06 174.00 109.45&#10;  Q 174.00 110.00 174.54 110.00&#10;  L 183.20 109.99&#10;  A 2.47 2.45 7.1 0 0 185.59 108.14&#10;  Q 186.70 103.84 185.03 100.01&#10;  C 183.63 96.78 179.17 95.87 176.86 98.79"/>
</g>
<path fill="#ffffff" d="&#10;  M 0.00 0.00&#10;  L 233.00 0.00&#10;  L 233.00 213.00&#10;  L 0.00 213.00&#10;  L 0.00 0.00&#10;  Z&#10;  M 62.23 22.61&#10;  C 55.07 23.86 49.01 28.30 45.27 34.50&#10;  C 35.29 51.06 35.65 70.39 43.14 87.92&#10;  Q 52.21 109.14 70.74 123.10&#10;  Q 76.21 127.23 81.74 129.81&#10;  Q 82.44 130.13 82.13 129.43&#10;  C 75.44 114.17 70.13 95.00 73.60 78.60&#10;  C 77.21 61.60 86.00 44.50 101.32 35.97&#10;  A 0.29 0.28 51.6 0 0 101.37 35.51&#10;  C 90.75 25.99 76.38 20.15 62.23 22.61&#10;  Z&#10;  M 86.62 57.24&#10;  C 79.72 68.40 75.81 81.07 74.73 94.22&#10;  A 0.16 0.16 0.0 0 0 75.03 94.31&#10;  Q 90.14 68.93 119.88 63.78&#10;  Q 140.07 60.29 159.28 64.87&#10;  Q 161.85 65.48 164.39 66.47&#10;  A 0.58 0.57 -71.0 0 0 165.15 66.09&#10;  Q 167.81 57.03 165.57 46.92&#10;  Q 163.98 39.75 157.73 34.75&#10;  C 150.50 28.98 140.04 27.48 130.80 28.62&#10;  Q 102.14 32.17 86.62 57.24&#10;  Z&#10;  M 95.99 139.80&#10;  C 70.13 132.84 50.29 117.44 41.40 92.05&#10;  Q 41.12 91.26 40.53 91.85&#10;  Q 39.21 93.17 38.18 94.72&#10;  C 29.84 107.21 24.98 128.79 37.17 141.08&#10;  Q 43.85 147.81 51.97 149.84&#10;  Q 81.15 157.15 110.86 150.11&#10;  C 114.76 149.19 118.26 147.70 121.64 145.52&#10;  Q 123.80 144.12 121.23 143.97&#10;  Q 108.71 143.22 95.99 139.80&#10;  Z&#10;  M 103.56 112.00&#10;  L 123.44 111.98&#10;  Q 123.93 111.98 123.97 111.49&#10;  C 124.40 105.38 123.00 99.65 117.13 96.61&#10;  C 109.92 92.89 100.20 95.76 95.80 102.52&#10;  C 91.09 109.75 92.20 121.57 99.61 126.72&#10;  C 107.89 132.47 118.56 130.93 123.79 121.53&#10;  A 0.50 0.49 -60.5 0 0 123.61 120.86&#10;  L 123.30 120.69&#10;  A 0.76 0.75 32.9 0 0 122.30 120.90&#10;  C 117.82 127.04 107.75 126.27 104.56 119.23&#10;  Q 103.16 116.15 103.01 112.57&#10;  Q 102.98 112.00 103.56 112.00&#10;  Z&#10;  M 174.55 111.99&#10;  L 194.45 112.00&#10;  Q 194.96 112.00 194.99 111.49&#10;  C 195.36 105.08 193.83 99.12 187.47 96.30&#10;  Q 181.98 93.86 175.64 95.90&#10;  C 165.43 99.18 161.78 109.95 165.24 119.54&#10;  Q 167.79 126.62 174.94 128.91&#10;  Q 187.68 133.00 194.65 121.97&#10;  Q 195.16 121.16 194.33 120.71&#10;  L 194.07 120.56&#10;  A 0.44 0.43 32.1 0 0 193.52 120.68&#10;  Q 190.30 124.97 185.09 125.00&#10;  C 177.65 125.04 174.31 119.40 174.01 112.56&#10;  Q 173.99 111.99 174.55 111.99&#10;  Z&#10;  M 140.52 98.00&#10;  L 143.51 97.99&#10;  Q 144.25 97.99 144.25 97.24&#10;  L 144.25 96.75&#10;  Q 144.25 96.00 143.50 96.00&#10;  L 126.03 96.00&#10;  A 0.50 0.49 -88.1 0 0 125.54 96.47&#10;  L 125.51 96.90&#10;  Q 125.44 97.75 126.30 97.73&#10;  Q 127.72 97.70 128.86 98.09&#10;  Q 129.25 98.23 129.41 98.61&#10;  L 143.32 131.78&#10;  Q 143.54 132.31 143.36 132.85&#10;  Q 141.73 137.59 138.30 141.20&#10;  A 0.61 0.61 0.0 0 1 137.35 141.11&#10;  C 135.01 137.51 130.68 135.36 127.07 138.60&#10;  C 126.10 139.47 125.49 141.22 126.19 142.43&#10;  Q 128.19 145.90 132.38 145.94&#10;  C 138.46 146.01 143.05 139.56 144.99 134.27&#10;  Q 151.45 116.59 157.89 98.47&#10;  Q 158.06 97.99 158.56 97.99&#10;  L 161.48 98.00&#10;  Q 161.99 98.00 161.99 97.49&#10;  Q 162.01 96.60 162.01 96.57&#10;  Q 162.02 96.01 161.46 96.01&#10;  Q 156.34 95.99 150.75 96.01&#10;  Q 150.00 96.02 149.99 96.76&#10;  L 149.99 97.48&#10;  Q 149.98 97.99 150.48 97.99&#10;  L 154.71 98.00&#10;  Q 155.31 98.01 155.13 98.58&#10;  L 148.26 120.24&#10;  A 0.24 0.24 0.0 0 1 147.80 120.25&#10;  L 140.01 98.74&#10;  Q 139.74 98.00 140.52 98.00&#10;  Z&#10;  M 166.04 147.23&#10;  A 0.34 0.34 0.0 0 1 165.71 146.83&#10;  L 165.99 145.07&#10;  A 0.34 0.34 0.0 0 1 166.32 144.78&#10;  L 170.82 144.75&#10;  A 0.34 0.34 0.0 0 0 171.15 144.43&#10;  L 171.20 143.38&#10;  A 0.34 0.34 0.0 0 0 170.87 143.03&#10;  L 163.28 142.99&#10;  A 0.34 0.34 0.0 0 0 162.94 143.29&#10;  L 161.80 153.62&#10;  A 0.34 0.34 0.0 0 0 162.14 154.00&#10;  L 169.99 153.97&#10;  A 0.34 0.34 0.0 0 0 170.33 153.67&#10;  L 170.46 152.66&#10;  A 0.34 0.34 0.0 0 0 170.13 152.28&#10;  L 165.44 152.23&#10;  A 0.34 0.34 0.0 0 1 165.10 151.86&#10;  L 165.33 149.31&#10;  A 0.34 0.34 0.0 0 1 165.67 149.01&#10;  L 170.00 148.93&#10;  A 0.34 0.34 0.0 0 0 170.33 148.64&#10;  L 170.47 147.67&#10;  A 0.34 0.34 0.0 0 0 170.13 147.28&#10;  L 166.04 147.23&#10;  Z&#10;  M 177.09 146.44&#10;  L 175.90 143.48&#10;  A 0.75 0.74 -10.0 0 0 175.22 143.01&#10;  L 173.27 143.01&#10;  Q 172.66 143.01 172.91 143.57&#10;  Q 173.89 145.76 175.02 148.15&#10;  C 175.82 149.87 175.40 151.77 175.09 153.55&#10;  Q 175.02 153.97 175.45 153.98&#10;  L 177.76 153.99&#10;  Q 178.18 154.00 178.21 153.58&#10;  C 178.34 151.79 178.26 149.92 179.36 148.36&#10;  Q 181.03 145.99 182.61 143.72&#10;  Q 183.09 143.02 182.24 143.02&#10;  L 180.58 143.01&#10;  Q 179.85 143.00 179.48 143.63&#10;  L 177.81 146.49&#10;  Q 177.39 147.20 177.09 146.44&#10;  Z&#10;  M 191.07 147.22&#10;  A 0.35 0.35 0.0 0 1 190.73 146.82&#10;  L 191.00 145.09&#10;  A 0.35 0.35 0.0 0 1 191.35 144.80&#10;  L 195.79 144.77&#10;  A 0.35 0.35 0.0 0 0 196.14 144.45&#10;  L 196.24 143.40&#10;  A 0.35 0.35 0.0 0 0 195.89 143.02&#10;  L 188.27 142.98&#10;  A 0.35 0.35 0.0 0 0 187.92 143.29&#10;  L 186.80 153.62&#10;  A 0.35 0.35 0.0 0 0 187.15 154.01&#10;  L 194.99 153.99&#10;  A 0.35 0.35 0.0 0 0 195.34 153.68&#10;  L 195.46 152.63&#10;  A 0.35 0.35 0.0 0 0 195.12 152.24&#10;  L 190.48 152.22&#10;  A 0.35 0.35 0.0 0 1 190.13 151.84&#10;  L 190.33 149.34&#10;  A 0.35 0.35 0.0 0 1 190.68 149.02&#10;  L 195.02 148.96&#10;  A 0.35 0.35 0.0 0 0 195.36 148.64&#10;  L 195.44 147.61&#10;  A 0.35 0.35 0.0 0 0 195.09 147.23&#10;  L 191.07 147.22&#10;  Z"/>
<path fill="#000000" d="&#10;  M 45.27 34.50&#10;  C 49.01 28.30 55.07 23.86 62.23 22.61&#10;  C 76.38 20.15 90.75 25.99 101.37 35.51&#10;  A 0.29 0.28 51.6 0 1 101.32 35.97&#10;  C 86.00 44.50 77.21 61.60 73.60 78.60&#10;  C 70.13 95.00 75.44 114.17 82.13 129.43&#10;  Q 82.44 130.13 81.74 129.81&#10;  Q 76.21 127.23 70.74 123.10&#10;  Q 52.21 109.14 43.14 87.92&#10;  C 35.65 70.39 35.29 51.06 45.27 34.50&#10;  Z"/>
<path fill="#000000" d="&#10;  M 74.73 94.22&#10;  C 75.81 81.07 79.72 68.40 86.62 57.24&#10;  Q 102.14 32.17 130.80 28.62&#10;  C 140.04 27.48 150.50 28.98 157.73 34.75&#10;  Q 163.98 39.75 165.57 46.92&#10;  Q 167.81 57.03 165.15 66.09&#10;  A 0.58 0.57 -71.0 0 1 164.39 66.47&#10;  Q 161.85 65.48 159.28 64.87&#10;  Q 140.07 60.29 119.88 63.78&#10;  Q 90.14 68.93 75.03 94.31&#10;  A 0.16 0.16 0.0 0 1 74.73 94.22&#10;  Z"/>
<path fill="#202020" d="&#10;  M 41.40 92.05&#10;  C 50.29 117.44 70.13 132.84 95.99 139.80&#10;  Q 108.71 143.22 121.23 143.97&#10;  Q 123.80 144.12 121.64 145.52&#10;  C 118.26 147.70 114.76 149.19 110.86 150.11&#10;  Q 81.15 157.15 51.97 149.84&#10;  Q 43.85 147.81 37.17 141.08&#10;  C 24.98 128.79 29.84 107.21 38.18 94.72&#10;  Q 39.21 93.17 40.53 91.85&#10;  Q 41.12 91.26 41.40 92.05&#10;  Z"/>
<path fill="#202020" d="&#10;  M 103.01 112.57&#10;  Q 103.16 116.15 104.56 119.23&#10;  C 107.75 126.27 117.82 127.04 122.30 120.90&#10;  A 0.76 0.75 32.9 0 1 123.30 120.69&#10;  L 123.61 120.86&#10;  A 0.50 0.49 -60.5 0 1 123.79 121.53&#10;  C 118.56 130.93 107.89 132.47 99.61 126.72&#10;  C 92.20 121.57 91.09 109.75 95.80 102.52&#10;  C 100.20 95.76 109.92 92.89 117.13 96.61&#10;  C 123.00 99.65 124.40 105.38 123.97 111.49&#10;  Q 123.93 111.98 123.44 111.98&#10;  L 103.56 112.00&#10;  Q 102.98 112.00 103.01 112.57&#10;  Z&#10;  M 114.56 108.31&#10;  C 115.75 104.16 114.91 96.78 109.02 97.07&#10;  C 104.08 97.31 103.05 105.92 102.98 109.41&#10;  Q 102.96 110.00 103.55 110.00&#10;  L 112.34 109.98&#10;  A 2.31 2.31 0.0 0 0 114.56 108.31&#10;  Z"/>
<path fill="#202020" d="&#10;  M 174.01 112.56&#10;  C 174.31 119.40 177.65 125.04 185.09 125.00&#10;  Q 190.30 124.97 193.52 120.68&#10;  A 0.44 0.43 32.1 0 1 194.07 120.56&#10;  L 194.33 120.71&#10;  Q 195.16 121.16 194.65 121.97&#10;  Q 187.68 133.00 174.94 128.91&#10;  Q 167.79 126.62 165.24 119.54&#10;  C 161.78 109.95 165.43 99.18 175.64 95.90&#10;  Q 181.98 93.86 187.47 96.30&#10;  C 193.83 99.12 195.36 105.08 194.99 111.49&#10;  Q 194.96 112.00 194.45 112.00&#10;  L 174.55 111.99&#10;  Q 173.99 111.99 174.01 112.56&#10;  Z&#10;  M 176.86 98.79&#10;  C 174.71 101.51 174.02 106.06 174.00 109.45&#10;  Q 174.00 110.00 174.54 110.00&#10;  L 183.20 109.99&#10;  A 2.47 2.45 7.1 0 0 185.59 108.14&#10;  Q 186.70 103.84 185.03 100.01&#10;  C 183.63 96.78 179.17 95.87 176.86 98.79&#10;  Z"/>
<path fill="#202020" d="&#10;  M 140.01 98.74&#10;  L 147.80 120.25&#10;  A 0.24 0.24 0.0 0 0 148.26 120.24&#10;  L 155.13 98.58&#10;  Q 155.31 98.01 154.71 98.00&#10;  L 150.48 97.99&#10;  Q 149.98 97.99 149.99 97.48&#10;  L 149.99 96.76&#10;  Q 150.00 96.02 150.75 96.01&#10;  Q 156.34 95.99 161.46 96.01&#10;  Q 162.02 96.01 162.01 96.57&#10;  Q 162.01 96.60 161.99 97.49&#10;  Q 161.99 98.00 161.48 98.00&#10;  L 158.56 97.99&#10;  Q 158.06 97.99 157.89 98.47&#10;  Q 151.45 116.59 144.99 134.27&#10;  C 143.05 139.56 138.46 146.01 132.38 145.94&#10;  Q 128.19 145.90 126.19 142.43&#10;  C 125.49 141.22 126.10 139.47 127.07 138.60&#10;  C 130.68 135.36 135.01 137.51 137.35 141.11&#10;  A 0.61 0.61 0.0 0 0 138.30 141.20&#10;  Q 141.73 137.59 143.36 132.85&#10;  Q 143.54 132.31 143.32 131.78&#10;  L 129.41 98.61&#10;  Q 129.25 98.23 128.86 98.09&#10;  Q 127.72 97.70 126.30 97.73&#10;  Q 125.44 97.75 125.51 96.90&#10;  L 125.54 96.47&#10;  A 0.50 0.49 -88.1 0 1 126.03 96.00&#10;  L 143.50 96.00&#10;  Q 144.25 96.00 144.25 96.75&#10;  L 144.25 97.24&#10;  Q 144.25 97.99 143.51 97.99&#10;  L 140.52 98.00&#10;  Q 139.74 98.00 140.01 98.74&#10;  Z"/>
<path fill="#ffffff" d="&#10;  M 109.02 97.07&#10;  C 114.91 96.78 115.75 104.16 114.56 108.31&#10;  A 2.31 2.31 0.0 0 1 112.34 109.98&#10;  L 103.55 110.00&#10;  Q 102.96 110.00 102.98 109.41&#10;  C 103.05 105.92 104.08 97.31 109.02 97.07&#10;  Z"/>
<path fill="#ffffff" d="&#10;  M 174.00 109.45&#10;  C 174.02 106.06 174.71 101.51 176.86 98.79&#10;  C 179.17 95.87 183.63 96.78 185.03 100.01&#10;  Q 186.70 103.84 185.59 108.14&#10;  A 2.47 2.45 7.1 0 1 183.20 109.99&#10;  L 174.54 110.00&#10;  Q 174.00 110.00 174.00 109.45&#10;  Z"/>
<path fill="#202020" d="&#10;  M 166.04 147.23&#10;  L 170.13 147.28&#10;  A 0.34 0.34 0.0 0 1 170.47 147.67&#10;  L 170.33 148.64&#10;  A 0.34 0.34 0.0 0 1 170.00 148.93&#10;  L 165.67 149.01&#10;  A 0.34 0.34 0.0 0 0 165.33 149.31&#10;  L 165.10 151.86&#10;  A 0.34 0.34 0.0 0 0 165.44 152.23&#10;  L 170.13 152.28&#10;  A 0.34 0.34 0.0 0 1 170.46 152.66&#10;  L 170.33 153.67&#10;  A 0.34 0.34 0.0 0 1 169.99 153.97&#10;  L 162.14 154.00&#10;  A 0.34 0.34 0.0 0 1 161.80 153.62&#10;  L 162.94 143.29&#10;  A 0.34 0.34 0.0 0 1 163.28 142.99&#10;  L 170.87 143.03&#10;  A 0.34 0.34 0.0 0 1 171.20 143.38&#10;  L 171.15 144.43&#10;  A 0.34 0.34 0.0 0 1 170.82 144.75&#10;  L 166.32 144.78&#10;  A 0.34 0.34 0.0 0 0 165.99 145.07&#10;  L 165.71 146.83&#10;  A 0.34 0.34 0.0 0 0 166.04 147.23&#10;  Z"/>
<path fill="#202020" d="&#10;  M 177.81 146.49&#10;  L 179.48 143.63&#10;  Q 179.85 143.00 180.58 143.01&#10;  L 182.24 143.02&#10;  Q 183.09 143.02 182.61 143.72&#10;  Q 181.03 145.99 179.36 148.36&#10;  C 178.26 149.92 178.34 151.79 178.21 153.58&#10;  Q 178.18 154.00 177.76 153.99&#10;  L 175.45 153.98&#10;  Q 175.02 153.97 175.09 153.55&#10;  C 175.40 151.77 175.82 149.87 175.02 148.15&#10;  Q 173.89 145.76 172.91 143.57&#10;  Q 172.66 143.01 173.27 143.01&#10;  L 175.22 143.01&#10;  A 0.75 0.74 -10.0 0 1 175.90 143.48&#10;  L 177.09 146.44&#10;  Q 177.39 147.20 177.81 146.49&#10;  Z"/>
<path fill="#000000" d="&#10;  M 191.07 147.22&#10;  L 195.09 147.23&#10;  A 0.35 0.35 0.0 0 1 195.44 147.61&#10;  L 195.36 148.64&#10;  A 0.35 0.35 0.0 0 1 195.02 148.96&#10;  L 190.68 149.02&#10;  A 0.35 0.35 0.0 0 0 190.33 149.34&#10;  L 190.13 151.84&#10;  A 0.35 0.35 0.0 0 0 190.48 152.22&#10;  L 195.12 152.24&#10;  A 0.35 0.35 0.0 0 1 195.46 152.63&#10;  L 195.34 153.68&#10;  A 0.35 0.35 0.0 0 1 194.99 153.99&#10;  L 187.15 154.01&#10;  A 0.35 0.35 0.0 0 1 186.80 153.62&#10;  L 187.92 143.29&#10;  A 0.35 0.35 0.0 0 1 188.27 142.98&#10;  L 195.89 143.02&#10;  A 0.35 0.35 0.0 0 1 196.24 143.40&#10;  L 196.14 144.45&#10;  A 0.35 0.35 0.0 0 1 195.79 144.77&#10;  L 191.35 144.80&#10;  A 0.35 0.35 0.0 0 0 191.00 145.09&#10;  L 190.73 146.82&#10;  A 0.35 0.35 0.0 0 0 191.07 147.22&#10;  Z"/>
</svg>